<?xml version="1.0" encoding="utf-8"?>
<!-- Generator: Adobe Illustrator 16.0.0, SVG Export Plug-In . SVG Version: 6.00 Build 0)  -->
<!DOCTYPE svg PUBLIC "-//W3C//DTD SVG 1.1//EN" "http://www.w3.org/Graphics/SVG/1.1/DTD/svg11.dtd">
<svg version="1.1" xmlns="http://www.w3.org/2000/svg" xmlns:xlink="http://www.w3.org/1999/xlink" x="0px" y="0px" width="500px"
	 height="500px" viewBox="0 0 500 500" enable-background="new 0 0 500 500" xml:space="preserve">
<symbol  id="Audibooks_text" viewBox="0.024 -57.65 388.9 57.65">
	<path fill-rule="evenodd" clip-rule="evenodd" d="M384-23.05c0.9-1.467,1.433-2.534,1.6-3.2c0.133-0.667-0.033-1.233-0.5-1.7
		c-0.567-0.466-1.083-0.6-1.55-0.4c-0.5,0.2-1.167,0.9-2,2.1c-1.333,1.833-3.017,2.8-5.05,2.9c-2.067,0.167-3.85-0.533-5.35-2.1
		c-1.5-1.5-2.25-3.466-2.25-5.9c0-2.2,0.85-4,2.55-5.4c1.767-1.433,4.55-2.667,8.35-3.7c3.4-0.933,5.9-2.25,7.5-3.95
		c1.567-1.667,2-3.467,1.3-5.4c-0.767-2.3-2.667-4.184-5.7-5.65c-3.033-1.466-6.55-2.2-10.55-2.2c-3.033,0-5.117,0.2-6.25,0.6
		c-1.1,0.333-2.6,1.35-4.5,3.05c-2.367,2.2-3.4,3.667-3.1,4.4c0.333,0.667,1.517,0.184,3.55-1.45c2.133-1.733,5.5-2.567,10.1-2.5
		c4.533,0.1,7.867,0.983,10,2.65c1.967,1.566,2.7,2.8,2.2,3.7c-0.467,0.9-2.383,1.85-5.75,2.85
		c-11.033,3.3-15.917,8.184-14.65,14.65c0.4,1.967,1.417,4.083,3.05,6.35c1.667,2.333,3.2,3.75,4.6,4.25
		C376.9-16.9,381.033-18.217,384-23.05z M333.55-0.2c0.8-0.267,1.117-0.867,0.95-1.8c-0.1-1.033-1.467-5.633-4.1-13.8
		c-2.4-8.167-3.467-12.4-3.2-12.7c0.367-0.367,3.167,0.567,8.4,2.8c9.033,4,14.083,5.15,15.15,3.45c0.4-0.8-2.15-2.5-7.65-5.1
		c-3.533-1.667-5.817-2.933-6.85-3.8c-1.033-0.833-1.65-1.883-1.85-3.15c-0.233-1.6,0.3-3.817,1.6-6.65
		c1.3-2.8,3.017-5.483,5.15-8.05c1.3-1.433,2-2.383,2.1-2.85c0.133-0.467-0.2-0.816-1-1.05c-1.4-0.567-3.1,0.066-5.1,1.9
		c-2,1.767-3.883,4.383-5.65,7.85c-2.167,4-3.6,6.05-4.3,6.15c-0.767,0-1.567-0.983-2.4-2.95c-0.867-2.033-1.533-4.517-2-7.45
		c-0.633-3.6-1.583-5.517-2.85-5.75c-0.9-0.133-1.417,0.05-1.55,0.55c-0.133,0.467-0.033,1.883,0.3,4.25
		c0.633,4.667,2.683,13.434,6.15,26.3S330.467-2.2,331.3-1.1C331.933-0.267,332.683,0.033,333.55-0.2z M291.1-29.85
		c-4.167-2.267-6.783-5.5-7.85-9.7c-1.067-4.2-0.183-7.767,2.65-10.7c2.434-2.367,5.283-3.417,8.55-3.15
		c3.233,0.267,6.433,1.833,9.6,4.7c0.9,0.867,1.517,1.8,1.85,2.8c0.333,0.967,0.5,2.467,0.5,4.5c0,3-0.333,5.517-1,7.55
		c-0.733,1.967-1.617,2.95-2.65,2.95c-0.9,0-1.833,0.55-2.8,1.65c-0.867,1.033-1.95,1.5-3.25,1.4
		C295.4-27.917,293.533-28.583,291.1-29.85z M310.15-37c0.4-3.2,0.383-5.733-0.05-7.6c-0.467-1.867-1.617-4-3.45-6.4
		c-2.3-3.1-5.5-5.133-9.6-6.1c-4.066-1-7.783-0.633-11.15,1.1c-1.967,1.033-3.683,2.717-5.15,5.05c-1.467,2.367-2.2,4.617-2.2,6.75
		c0,2.9,1.083,6.15,3.25,9.75c2.167,3.6,4.583,6.25,7.25,7.95c3.434,2.167,6.317,3.183,8.65,3.05c2.267-0.1,4.75-1.4,7.45-3.9
		c1.767-1.633,2.95-3.066,3.55-4.3C309.367-32.883,309.85-34.667,310.15-37z M243.5-39.55c-1.067-4.2-0.183-7.767,2.65-10.7
		c2.434-2.367,5.283-3.417,8.55-3.15c3.233,0.267,6.433,1.833,9.6,4.7c0.9,0.867,1.517,1.8,1.85,2.8c0.333,0.967,0.5,2.467,0.5,4.5
		c0,3-0.333,5.517-1,7.55c-0.733,1.967-1.617,2.95-2.65,2.95c-0.9,0-1.833,0.55-2.8,1.65c-0.867,1.033-1.95,1.5-3.25,1.4
		c-1.3-0.066-3.167-0.733-5.6-2C247.183-32.117,244.567-35.35,243.5-39.55z M268.95-31.65c0.667-1.233,1.15-3.017,1.45-5.35
		c0.4-3.2,0.383-5.733-0.05-7.6c-0.467-1.867-1.617-4-3.45-6.4c-2.3-3.1-5.5-5.133-9.6-6.1c-4.066-1-7.783-0.633-11.15,1.1
		c-1.967,1.033-3.683,2.717-5.15,5.05c-1.467,2.367-2.2,4.617-2.2,6.75c0,2.9,1.083,6.15,3.25,9.75c2.167,3.6,4.583,6.25,7.25,7.95
		c3.434,2.167,6.317,3.183,8.65,3.05c2.267-0.1,4.75-1.4,7.45-3.9C267.167-28.983,268.35-30.417,268.95-31.65z M229.9-23.45
		c0.967-1.733,1.267-3.867,0.9-6.4c-0.367-2.566-1.333-5.1-2.9-7.6c-3.4-5.2-7.117-9.05-11.15-11.55
		c-4.067-2.467-8.15-3.383-12.25-2.75c-3.067,0.4-4.733,0.867-5,1.4c-0.3,0.633-0.117,2.483,0.55,5.55
		c3.034,15.1,5.25,25.433,6.65,31c0.733,3.833,1.15,6.583,1.25,8.25c0.133,2.1,0.433,3.6,0.9,4.5c0.5,0.7,1,1.05,1.5,1.05
		c0.533,0,1.017-0.333,1.45-1c0.4-0.6,0.633-1.433,0.7-2.5c0.267-1.733-0.15-4.333-1.25-7.8c-0.5-1.5-0.917-3.034-1.25-4.6
		c-0.333-1.567-0.483-2.85-0.45-3.85c0.034-0.967,0.2-1.45,0.5-1.45c0.367,0,2.3,0.383,5.8,1.15c3.2,0.667,6.133,0.683,8.8,0.05
		C227.317-20.633,229.067-21.783,229.9-23.45z M205.35-36.65c-0.967-4.567-1.217-7.467-0.75-8.7c0.867-2.133,3.267-2.433,7.2-0.9
		c3.934,1.533,7.483,4.083,10.65,7.65c2.733,3.2,4.333,5.717,4.8,7.55c0.5,1.867-0.05,3.417-1.65,4.65c-0.633,0.533-1.467,1-2.5,1.4
		c-1,0.4-1.917,0.6-2.75,0.6c-1.6-0.067-3.767-0.567-6.5-1.5c-2.767-0.967-4.7-1.867-5.8-2.7
		C207.183-29.333,206.283-32.017,205.35-36.65z M170.15-26.5c3.434,2.167,6.317,3.183,8.65,3.05c2.267-0.1,4.75-1.4,7.45-3.9
		c1.767-1.633,2.95-3.066,3.55-4.3c0.667-1.233,1.15-3.017,1.45-5.35c0.4-3.2,0.383-5.733-0.05-7.6c-0.467-1.867-1.617-4-3.45-6.4
		c-2.3-3.1-5.5-5.133-9.6-6.1c-4.066-1-7.783-0.633-11.15,1.1c-1.967,1.033-3.683,2.717-5.15,5.05c-1.467,2.367-2.2,4.617-2.2,6.75
		c0,2.9,1.083,6.15,3.25,9.75C165.067-30.85,167.483-28.2,170.15-26.5z M164.35-39.55c-1.067-4.2-0.184-7.767,2.65-10.7
		c2.433-2.367,5.283-3.417,8.55-3.15c3.233,0.267,6.434,1.833,9.6,4.7c0.9,0.867,1.517,1.8,1.85,2.8c0.333,0.967,0.5,2.467,0.5,4.5
		c0,3-0.333,5.517-1,7.55c-0.733,1.967-1.617,2.95-2.65,2.95c-0.9,0-1.833,0.55-2.8,1.65c-0.867,1.033-1.95,1.5-3.25,1.4
		c-1.3-0.066-3.167-0.733-5.6-2C168.033-32.117,165.417-35.35,164.35-39.55z M150.75-9.2c-1.067,0.333-1.883,1.1-2.45,2.3
		c-0.633,1.2-0.733,2.283-0.3,3.25c0.6,1.566,1.383,1.95,2.35,1.15c0.733-0.667,1.2-1.867,1.4-3.6c0.1-1.3,0.083-2.183-0.05-2.65
		C151.533-9.25,151.217-9.4,150.75-9.2z M125.15-12.15c0,1.1,0.733,3.283,2.2,6.55c1.467,3.233,2.617,4.733,3.45,4.5
		c2.367-0.933,2.267-3.816-0.3-8.65c-3-5.767-5.067-13.267-6.2-22.5c-1.133-9.3-0.683-15.4,1.35-18.3
		c0.833-1.333,1.25-2.167,1.25-2.5c0-0.4-0.417-0.75-1.25-1.05c-1.333-0.467-2.917,0.45-4.75,2.75c-1.333,1.533-2.3,2.434-2.9,2.7
		c-0.633,0.267-1.617,0.133-2.95-0.4c-2.133-0.767-4.833-1.15-8.1-1.15c-6.4,0-10.333,2.983-11.8,8.95
		c-0.566,2.833-0.3,5.45,0.8,7.85c1.1,2.4,3.183,5,6.25,7.8c2.933,2.533,5.333,4.133,7.2,4.8c1.9,0.633,4.483,0.733,7.75,0.3
		c2.233-0.3,3.6-0.333,4.1-0.1s0.9,1.083,1.2,2.55c0.533,2.133,1.1,3.383,1.7,3.75C124.817-13.767,125.15-13.05,125.15-12.15z
		 M141.1-36.3c0.566,4.466,1.316,7.883,2.25,10.25c0.633,1.5,1.417,2.25,2.35,2.25c0.933-0.034,1.3-0.817,1.1-2.35
		c-0.233-1.267-0.95-6.033-2.15-14.3c-1.333-8.167-2.4-12.4-3.2-12.7c-0.8-0.267-1.217,1.35-1.25,4.85
		C140.167-44.8,140.467-40.8,141.1-36.3z M100.15-39.75c0.3-1.667,1.117-3.017,2.45-4.05c2.6-2.233,6.55-2.45,11.85-0.65
		c0.7,0.233,1.233,0.417,1.6,0.55c0.3,0.066,0.65,0.283,1.05,0.65s0.65,0.65,0.75,0.85c0.1,0.233,0.233,0.733,0.4,1.5
		c0.167,0.8,0.267,1.483,0.3,2.05c0.034,0.6,0.117,1.65,0.25,3.15c0.3,2.967,0.383,5.083,0.25,6.35c-0.1,1.267-0.483,2.3-1.15,3.1
		c-0.967,1.067-2.033,1.617-3.2,1.65c-1.167,0.067-2.867-0.383-5.1-1.35c-2.067-0.933-3.883-2.2-5.45-3.8
		c-1.6-1.6-2.717-3.25-3.35-4.95C100.1-36.4,99.883-38.083,100.15-39.75z M82.65-45.9c0.567-2,1.367-3.667,2.4-5
		c1.267-1.633,1.95-2.684,2.05-3.15c0.066-0.434-0.3-0.8-1.1-1.1c-1.3-0.5-3.25,0.717-5.85,3.65l-3.85,4.35l-4.7-2.45
		c-3.467-1.667-6.567-2.733-9.3-3.2c-1.867-0.3-3.233-0.35-4.1-0.15c-0.867,0.233-1.733,0.833-2.6,1.8
		c-1.033,0.967-1.667,1.9-1.9,2.8c-0.233,0.9-0.184,2.283,0.15,4.15c0.3,2.333,1.316,5.85,3.05,10.55c1.8,4.7,3.2,7.7,4.2,9
		c1.467,1.733,2.417,1.85,2.85,0.35c0.466-1.967-0.05-4.467-1.55-7.5c-0.2-0.4-0.417-0.8-0.65-1.2c-1.633-2.7-2.683-5.45-3.15-8.25
		c-0.434-2.767-0.133-4.733,0.9-5.9c1.167-1.267,2.283-1.85,3.35-1.75c1.066,0.133,3.316,1.1,6.75,2.9l5.7,3.1v8.4
		c0,3.833,0.117,6.183,0.35,7.05c0.233,0.934,0.85,1.4,1.85,1.4c0.9,0,1.55-0.583,1.95-1.75c0.367-1.133,0.9-4.133,1.6-9
		C81.517-40.933,82.05-43.967,82.65-45.9z M43.25-3.9c1-1.3,1.5-2.467,1.5-3.5c0-1.333-0.55-3.333-1.65-6
		c-0.833-2.133-1.65-5.783-2.45-10.95c-0.8-5.2-0.983-8.167-0.55-8.9c0.233-0.533,1.267-0.8,3.1-0.8c1.767,0,2.617-0.35,2.55-1.05
		c-0.067-0.7-1.017-1.133-2.85-1.3c-1.5-0.2-2.367-0.667-2.6-1.4c-0.233-0.733-0.4-3.15-0.5-7.25c0-2.267-0.133-4.35-0.4-6.25
		c-0.267-1.934-0.55-3.034-0.85-3.3c-1.033-1.066-2.15-0.167-3.35,2.7c-1,2.233-1.667,5.033-2,8.4l-0.8,6.7L25-37
		c-1.667-0.033-2.883-0.083-3.65-0.15c-0.8-0.067-1.733-0.267-2.8-0.6c-1.066-0.3-1.816-0.617-2.25-0.95
		c-0.433-0.3-1.167-0.983-2.2-2.05c-1-1.067-1.85-2.067-2.55-3c-0.733-0.933-1.883-2.467-3.45-4.6c-3.9-5.233-6.367-7.383-7.4-6.45
		c-0.233,0.167-0.45,0.5-0.65,1c-0.233,0.733,1.117,2.917,4.05,6.55c2.2,2.833,3.533,4.9,4,6.2c0.4,1.267,0.083,2.417-0.95,3.45
		c-0.6,0.633-0.85,1.217-0.75,1.75s0.55,0.967,1.35,1.3c0.8,0.333,1.85,0.5,3.15,0.5c0.033,0,0.15,0,0.35,0
		c1.6,0,3.217,0.867,4.85,2.6c1.6,1.733,6.533,7.867,14.8,18.4c1.167,1.466,2.05,2.6,2.65,3.4c4.1,5.167,6.434,7.75,7,7.75
		C41.317-1.9,42.217-2.567,43.25-3.9z M34.65-17.85c-0.133,0.6-0.3,0.9-0.5,0.9c-0.767,0-3.267-2.566-7.5-7.7
		c-4.267-5.167-6.233-8.033-5.9-8.6c0.367-0.533,2.467-0.8,6.3-0.8c3.867,0,5.95,0.267,6.25,0.8c0.4,0.867,0.784,3.733,1.15,8.6
		c0.2,1.5,0.316,2.85,0.35,4.05C34.833-19.367,34.783-18.45,34.65-17.85z"/>
</symbol>
<symbol  id="TJ_Logo_Plain" viewBox="0 -231.25 244.996 231.25">
	<g id="Layer_3_1_">
		<path fill-rule="evenodd" clip-rule="evenodd" d="M69.5-156.3c0.067-0.934,0.3-2.567,0.7-4.9c-0.034,3.4-0.184,6.667-0.45,9.8
			C69.55-153.733,69.467-155.367,69.5-156.3z M66.4-165.1c0.9-2.8,1.583-5.667,2.05-8.6c0.167-1.7,0.417-3.333,0.75-4.9
			c-0.034-0.867-0.15-1.617-0.35-2.25c0.267-0.333,0.533-0.633,0.8-0.9c0,1.067-0.017,2.117-0.05,3.15
			c-0.167,4.667-0.567,9.367-1.2,14.1c-0.1,1-0.233,1.983-0.4,2.95c-1.067,6.867-1.467,13.983-1.2,21.35
			c0.567,0,1.117,0.034,1.65,0.1c0.133,0.467,0.417,0.783,0.85,0.95c-0.433,0.2-0.716,0.517-0.85,0.95
			c-0.534,0.034-1.083,0.083-1.65,0.15c0,3.3,0.55,6.466,1.65,9.5l-0.2,17.25c-0.067,0.667-0.117,1.367-0.15,2.1
			c-1.467-0.633-2.95-1.233-4.45-1.8c-3.9-1.333-8.017-2.517-12.35-3.55c-0.033,0-0.05-0.017-0.05-0.05
			c-0.067-1.1-0.133-2.233-0.2-3.4c-1.367-9.633-2.25-18.917-2.65-27.85c-0.433-3.367-1.517-6.25-3.25-8.65l-0.25-9.35l-0.15-1.2
			l-2.2-6.55v-0.15c0.767-0.3,1.5-0.617,2.2-0.95c-3.1-8.133-5.983-16.1-8.65-23.9c-0.9-1.6-1.65-2.917-2.25-3.95
			c0.167-0.767,0.35-1.684,0.55-2.75c-0.6-0.5-1.417-0.9-2.45-1.2c-0.367-0.533-0.167-0.783,0.6-0.75
			c0.8,0.067,1.117-0.25,0.95-0.95c-0.533-0.367-0.983-0.716-1.35-1.05c-0.133-1.733-0.117-3.467,0.05-5.2
			c-0.267,0.7-0.617,1.1-1.05,1.2c-0.033,0.633,0.033,1.117,0.2,1.45c-1.434-1.934-2.2-3.367-2.3-4.3
			c-0.1-0.967-0.033-2.533,0.2-4.7c10.7-0.6,21.583-0.45,32.65,0.45c1.233,0.133,3.4,0.333,6.5,0.6l5.6,0.3
			c1.633-1.133,3.2-2.233,4.7-3.3c-6.833-0.7-13.617-1.767-20.35-3.2c-1.633,0.034-3.35,0.317-5.15,0.85
			c-2.333,0.267-5.25,0.283-8.75,0.05c-3.467-0.2-6.35-0.467-8.65-0.8c-0.3,0.367-0.583,0.85-0.85,1.45
			c-0.767-0.467-1.65-1.017-2.65-1.65l-0.35-0.05l-1.5,0.35l-2.25,0.8c-1.967,0.8-3.45,1.35-4.45,1.65
			c-0.867-0.5-1.35-1.267-1.45-2.3c-1.566-2.3-3.017-4.85-4.35-7.65l0.05,0.9l-0.05,0.05c1.1,2.833,1.966,5.05,2.6,6.65
			c0.633,1.633,0.1,3.3-1.6,5c1.5,0.467,3.05,1.533,4.65,3.2c0.733,1.267,1.4,2.4,2,3.4c0.066,0.966,0.167,2.2,0.3,3.7
			c0.967,2.233,2.133,4.467,3.5,6.7c2.3,4.533,4.783,9.066,7.45,13.6c0.233,1.833,0.35,4.017,0.35,6.55
			c0.4,0.733,0.883,1.417,1.45,2.05c0.434,1.367,0.867,3.8,1.3,7.3c0.4,3.467,0.65,6.117,0.75,7.95c0.667,1.9,1.433,3.85,2.3,5.85
			c0.167,1.133,0.383,2.3,0.65,3.5c0.1,0.5,0.2,0.983,0.3,1.45c-0.167,0.733-0.333,1.316-0.5,1.75c0.7,0.7,1.316,1.233,1.85,1.6
			c-0.7,5.4-0.017,10.95,2.05,16.65c-0.167,1.633-0.317,3.25-0.45,4.85c0.567,0.6,1.017,1.233,1.35,1.9
			c-0.467,2.433-0.667,4.95-0.6,7.55c0.233,0.934,0.5,2.033,0.8,3.3c-2.467-1.133-4.85-2.383-7.15-3.75
			c-2.033,1.566-3.9,1.5-5.6-0.2c-3.7-1.667-7.833-3.383-12.4-5.15c-4.566-1.7-7.95-3.934-10.15-6.7c-0.3,0.6-0.75,1.267-1.35,2
			l-0.9-0.05L0.3-132.7c0.567,0.567,0.817,1.1,0.75,1.6c1.367,0.233,2.55,0.633,3.55,1.2c-0.633,0.733-0.667,1.4-0.1,2
			c2.5,0.066,4.933,0.417,7.3,1.05l6.9,8.15c7.466,7.9,14.5,16.117,21.1,24.65c-8.5,0.233-17.2-0.184-26.1-1.25
			c-0.733-0.167-1.7-0.817-2.9-1.95c-1.133-1.133-1.983-2.017-2.55-2.65l-2.4-3.15L5.7-103.1v-0.05H5.65
			c-0.433,0.333-0.917,0.333-1.45,0c1.7,2.967,3.15,5.55,4.35,7.75c-2.333-0.233-4.8-0.417-7.4-0.55
			c-0.533,0.367-0.917,0.767-1.15,1.2c2.533,0.733,5.1,1.417,7.7,2.05l0.8,0.9l0.15,0.3l0.05,0.25v0.05l-0.05,0.05v0.05
			c1.333,0.033,2.667,0.1,4,0.2c1.4,0.566,2.817,2.45,4.25,5.65l2.55,6.55c0.466-0.367,0.983-0.533,1.55-0.5
			c0.867,1,1.567,1.967,2.1,2.9c-0.7,2.6-1.75,5.117-3.15,7.55c-1.767,5.633-3.617,11.6-5.55,17.9c-0.767,0.633-1.667,1.05-2.7,1.25
			c0.8,0.1,1.383,0.267,1.75,0.5l-0.3,5.3c1.5-0.7,2.75-1.383,3.75-2.05c0.434-1.3,1.033-2.383,1.8-3.25
			c3.733-0.333,7.316-0.367,10.75-0.1c1.167-0.033,2.833-0.283,5-0.75c2.133-0.533,3.816-0.833,5.05-0.9
			c1.7,0.133,3.4,0.15,5.1,0.05c-0.267,2.167-0.517,4.45-0.75,6.85c-0.467,5.034-2.083,8.534-4.85,10.5
			c3.733,3.833,7.967,7.3,12.7,10.4c-1.333,2.5-2.967,4.8-4.9,6.9c-0.333,0.667,0.117,1.117,1.35,1.35
			c1.233,0.2,2.017,0.133,2.35-0.2c-0.1-0.7-0.183-1.417-0.25-2.15c1.867-2.7,3.833-3.417,5.9-2.15l-0.95-3l-0.1-1l0.05-0.4
			l0.05-0.2l3.15-3.3c4.3,4.534,10.65,9.867,19.05,16C85.767-5.1,92.65-1.367,98.05,0c-0.433-2.2-1.267-4.8-2.5-7.8
			c0.067-1.2,0.25-2.117,0.55-2.75c-1.833-2.567-3.967-6.15-6.4-10.75c-2.434-4.567-3.967-8.367-4.6-11.4
			c0.2-0.767,0.383-1.383,0.55-1.85c-2.133-3.9-4.017-8.4-5.65-13.5c-0.433-1.3-0.783-2.583-1.05-3.85c9.7-1.8,19.683-2.3,29.95-1.5
			h16.7c2.667,0.167,5.217,0.4,7.65,0.7c1.067,0,1.983-0.05,2.75-0.15c0.433,0,0.767,0,1,0c2.9,0.167,6.85,0.417,11.85,0.75
			c2.267,0.133,4.5,0.35,6.7,0.65c-0.267,1.2-0.483,2.35-0.65,3.45c-0.5,3.333-1.167,7.183-2,11.55
			c-0.467,3.233-0.183,6.767,0.85,10.6c1.033,3.867,1.633,7.367,1.8,10.5c5-0.933,10.184-1.6,15.55-2
			c-0.467-1.5-0.95-3.066-1.45-4.7c1.033,0.633,2.083,1.267,3.15,1.9c9.534,5.9,18.767,12.417,27.7,19.55
			c1.267,0.133,2.167-0.3,2.7-1.3c-1.867-1.367-3.8-2.684-5.8-3.95c2.867-6.5,4.983-12.983,6.35-19.45l-1.15,1l-0.65,0.45l-0.5,0.15
			h-0.15l-0.1-0.05c-1.967-7.267-3.767-14.5-5.4-21.7c2,0.534,4.317,1.217,6.95,2.05c6.4,2,10.8,3.617,13.2,4.85
			c0.433-0.2,0.95-0.434,1.55-0.7c1.9-4.867,3.883-10.067,5.95-15.6c5.867,0.767,11.716,0.767,17.55,0
			c0.9,2.167,1.35,4.15,1.35,5.95c0.433,0.566,0.867,0.983,1.3,1.25l0.4-0.75l0.85-3.65c0.167-1.034,0.117-2.167-0.15-3.4
			c-0.533-2.867-1.35-5.667-2.45-8.4c-0.333-0.7-0.783-1.8-1.35-3.3c-0.567-1.5-0.65-2.583-0.25-3.25c0.8-0.3,1.533-0.617,2.2-0.95
			c-1-0.4-2.017-0.717-3.05-0.95l-0.8-1.85l-0.4-0.65h-0.05l-0.1-0.15c-3.067,2.3-5.15,2.967-6.25,2
			c-1.1-0.966-2.917-1.35-5.45-1.15c-0.333,0.533-0.617,0.967-0.85,1.3c-0.333-0.633-0.75-0.983-1.25-1.05
			c-2.034-0.833-4.95-1.75-8.75-2.75c-1.167,0.1-2.284,0.25-3.35,0.45c-0.6-0.567-1.167-0.983-1.7-1.25c0.1,0.4,0.167,0.733,0.2,1
			c-2.2-0.533-4.767-0.667-7.7-0.4c-2.5-0.5-5-1.05-7.5-1.65c-2.2-0.033-4.5-0.133-6.9-0.3c-0.133-0.933-0.267-1.867-0.4-2.8
			c-0.367-4.6-0.867-9.4-1.5-14.4c0.033-1.2,0.233-2.483,0.6-3.85c0.233-2.4,0.267-5.284,0.1-8.65c-0.133-3.4-0.3-6.35-0.5-8.85
			l-0.6,3.7l-0.2,0.55l-0.05,0.05c-0.6-7.733-0.534-15.15,0.2-22.25c-0.367,0-0.7,0-1,0c0.2-0.533,0.434-1.067,0.7-1.6l0.15-0.3
			l0.2-0.9l0.2-4.15c0.067-3.033,0.1-5.167,0.1-6.4c-0.067-10.767,2.35-21.117,7.25-31.05l2.1,2.75l0.65,0.65l3.6,1.6
			c-2.667-2.2-4.5-3.983-5.5-5.35c-1-1.4-1.033-3.9-0.1-7.5l-2.4,3.45l-0.1,0.05c-2.867-3.133-5.467-6.583-7.8-10.35
			c-2.233-3.367-4.45-6.733-6.65-10.1c-0.667-1-1.333-2.033-2-3.1c-2.367-3.567-4.7-7.167-7-10.8c-1.033-1.7-1.75-3.183-2.15-4.45
			c-0.4-1.267-1.283-2.817-2.65-4.65c-0.5,0.133-1.05-0.133-1.65-0.8c0.2,1.833,0.417,3.667,0.65,5.5
			c-8.167-1.4-16.983-1.6-26.45-0.6c-0.933,0-2.383-0.183-4.35-0.55c-2-0.367-3.417-0.383-4.25-0.05c-1.7,1.1-2.9,2.567-3.6,4.4
			c-0.367,0-0.8-0.067-1.3-0.2c-1.533,1.533-2.917,3.133-4.15,4.8l-0.2,0.4l-2.15,3c-1.2,1.633-2.183,3.417-2.95,5.35
			c-1.333,3.133-2.617,6.3-3.85,9.5c-0.433,1.1-1.433,2.85-3,5.25c-1.533,2.434-2.45,4.55-2.75,6.35c-0.6,7.5-1.767,14.55-3.5,21.15
			c-0.233,1.6-0.183,4.434,0.15,8.5c0.367,4.034,0.5,7.233,0.4,9.6c-1.867-0.033-3.75-0.033-5.65,0c3.033,2,4.95,3.983,5.75,5.95
			c0.8,2,1.317,4.933,1.55,8.8c0.233-0.867,0.633-1.633,1.2-2.3v-0.05l0.55-4.15c3.633,2.3,7.45,4.817,11.45,7.55
			c3.967,2.733,7.8,4.833,11.5,6.3c3.3,2.233,6.5,4.783,9.6,7.65c4.5,1.667,7.8,4.333,9.9,8c-0.433-1.5-0.517-2.517-0.25-3.05
			c2.833,0,5.633,0.583,8.4,1.75c-3.1-1.8-6.2-3.767-9.3-5.9c-0.133-1,0.067-1.9,0.6-2.7c-0.7-1.5-1.25-3.067-1.65-4.7
			c-0.934-5.667-1.5-11.75-1.7-18.25c-0.767-1.1-1.467-1.383-2.1-0.85c1.033-3.1,1.25-6.383,0.65-9.85
			c0.4-0.934,0.833-1.883,1.3-2.85c-0.167-7.4,0.917-14.2,3.25-20.4c1.433,2.4,4.033,5.467,7.8,9.2l6.5,6.55
			c1.2,5.066,2.5,11.316,3.9,18.75c1.367,7.433,2.067,13.617,2.1,18.55c-0.3,4.167-0.533,8.45-0.7,12.85
			c-0.067,2.4-0.133,4.833-0.2,7.3c-0.533,0.633-0.967,1.267-1.3,1.9c0.133,0.3,0.383,0.3,0.75,0c0.367-0.333,0.583-0.05,0.65,0.85
			c-0.633,0.367-1.15,0.767-1.55,1.2c-0.633,4.967-1.283,9.833-1.95,14.6l-3.9,0.3h-0.2c-6.7-1.167-13.15-3.017-19.35-5.55
			c-0.6,0.033-1.117,0.2-1.55,0.5c-3.4-0.7-6.75-1.65-10.05-2.85l-0.25-0.1l-6.45-0.35c-7.033-1.966-13.684-3.9-19.95-5.8
			c-6.7-2.567-13.45-4.983-20.25-7.25c-1.667-0.2-3.283-0.55-4.85-1.05c-1.966-1.167-3.983-2.25-6.05-3.25
			c-0.033-2.767,0.05-5.684,0.25-8.75c0.333,2.767,0.667,5.533,1,8.3h0.1l0.15-0.15l0.25-0.55l0.25-1.1
			c-0.167-1.067-0.3-2.2-0.4-3.4c-0.033-2.233-0.033-4.466,0-6.7v-13.45c-0.133-1.733-0.217-3.467-0.25-5.2
			c-0.067-2.1-0.083-4.2-0.05-6.3c0.1-4.9,0.45-9.733,1.05-14.5c0.233-2,0.167-4.633-0.2-7.9c-0.367-3.3-0.5-5.75-0.4-7.35
			c1.333-7.467,2.217-14.816,2.65-22.05l0.2-0.7l1.7-3.5c1.133-2,1.833-3.533,2.1-4.6c0.833-3.267,1.684-6.45,2.55-9.55
			c0.033-0.167,0.066-0.3,0.1-0.4c1.067-3.9,2.117-7.667,3.15-11.3c-1.534,2.3-2.867,4.767-4,7.4c-0.233,0.533-0.467,1.083-0.7,1.65
			c-0.1,0.433-0.25,1.167-0.45,2.2c-0.066,0.233-0.133,0.5-0.2,0.8l-0.55,2.6c-0.867,1.066-1.617,2.4-2.25,4
			c-0.5,1.933-1.083,3.85-1.75,5.75c0.133,0.733,0.3,1.316,0.5,1.75c-5.433,11.633-8.1,23.883-8,36.75
			C66.333-164.9,66.367-165,66.4-165.1z M214.5-42.95c-1.267,0.067-2.533,0.067-3.8,0l0.05-0.05l0.15-0.1l2.5-1.1
			C213.8-43.633,214.167-43.217,214.5-42.95z M195-8.25c-9.7-6.9-19.55-14.183-29.55-21.85c-1.4-0.133-2.65,0.35-3.75,1.45
			c2.466,2.066,4.4,4.9,5.8,8.5c-3.267,0.2-6.483,0.65-9.65,1.35c-2.567-9.167-3.233-17.767-2-25.8
			c0.333-2.167,0.733-4.383,1.2-6.65c2.1,0.333,4.15,0.733,6.15,1.2c3.533,0.833,7.9,1.65,13.1,2.45c5.167,0.767,9.417,1.1,12.75,1
			c1,0.033,2.267,0.2,3.8,0.5l0.85,3.95l0.25,0.8c2.833,6.333,4.783,13.05,5.85,20.15l-0.35,1.5l-1.7,4.75
			C196.45-11.717,195.533-9.483,195-8.25z M21.85-122.75v-0.05h0.05c9.3,4.1,18.483,7.783,27.55,11.05
			c0.667,0.233,1.333,0.467,2,0.7c0.1,0.066,0.216,0.117,0.35,0.15c0.1-0.3,0.217-0.6,0.35-0.9c1-0.467,2.233-0.267,3.7,0.6l2.8,1.7
			c-2.267-0.367-4.3-0.717-6.1-1.05c2.5,1.367,5.917,2.917,10.25,4.65c1.6,0.633,3.117,1.183,4.55,1.65
			c0.233,0.067,0.467,0.133,0.7,0.2c0.534,0.167,1.067,0.316,1.6,0.45c0.233,0.067,0.483,0.117,0.75,0.15
			c0.4,0.1,0.8,0.184,1.2,0.25c0.8,0.167,1.566,0.284,2.3,0.35c4.533,0.367,8.917,1.283,13.15,2.75
			c19.8,7.233,39.717,12.733,59.75,16.5c5.067,0.934,10.15,1.85,15.25,2.75c0.434,0.1,0.867,0.184,1.3,0.25
			c8.167,1.467,16.4,2.9,24.7,4.3c0.434,0.066,0.883,0.133,1.35,0.2c0.333,0.067,0.684,0.133,1.05,0.2
			c3.667,0.633,7.35,1.25,11.05,1.85c2.067,0.333,4.15,0.667,6.25,1c-1.333,0.167-2.783,0.3-4.35,0.4c-0.8-0.067-1.5-0.2-2.1-0.4
			c-0.633,0.233-0.883,0.483-0.75,0.75c5.833,0.433,11.934,0.65,18.3,0.65c6.333,0,12.333,0.517,18,1.55
			c1.933,3.833,3.15,8.383,3.65,13.65c-6.467,0.534-12.983,0.434-19.55-0.3l-5.4-0.85h-0.4l-0.05,0.05c-0.533,0.6-1.167,1-1.9,1.2
			c2.433,0.7,4.966,1.167,7.6,1.4c-0.7,3.633-1.933,7.317-3.7,11.05c-3.767-1.333-8.767-2.733-15-4.2
			c-2.633-0.633-5.083-1.167-7.35-1.6c-0.967-0.167-1.883-0.316-2.75-0.45c-2-0.3-3.817-0.5-5.45-0.6
			c-4.1-0.2-8.45-0.783-13.05-1.75c-4.667-0.933-8.333-2.317-11-4.15c-0.333,0.6-0.683,1.1-1.05,1.5c-1.167-0.1-2.3-0.2-3.4-0.3
			c-0.466-0.033-0.933-0.083-1.4-0.15c-3.467-0.333-6.833-0.717-10.1-1.15c-4.533,0.367-9.017,0.367-13.45,0
			c-1.1-0.4-2.2-0.667-3.3-0.8c-6.4,0.7-13.583,1.05-21.55,1.05c-7.9,0-15.217-0.35-21.95-1.05c-2.5,1.333-5.167,2.15-8,2.45
			c-1,0.1-2,0.133-3,0.1c-1.2,0-2.433-0.1-3.7-0.3c-0.833-0.1-1.633-0.217-2.4-0.35c-0.667,0.1-1.317,0.183-1.95,0.25
			c-0.1,0.033-0.183,0.05-0.25,0.05c-0.233,0.033-0.483,0.067-0.75,0.1c0.267-0.267,0.483-0.533,0.65-0.8
			c-3.566-0.534-6.85-1.034-9.85-1.5c-0.2,0.267-0.433,0.5-0.7,0.7c0.167,0.267,0.3,0.483,0.4,0.65c0.067,0.067,0.133,0.133,0.2,0.2
			c-0.2,0.033-0.4,0.05-0.6,0.05c-3.2,0.2-6.467,0.434-9.8,0.7c-0.466,0.033-0.917,0.067-1.35,0.1c-8.567,0.7-17.65,1.6-27.25,2.7
			c2.9-7.033,5.35-13.683,7.35-19.95c1.767,0.967,3.25,1.55,4.45,1.75c-4.367-6.434-9.283-13.467-14.75-21.1
			c6.133,0.5,11.5,0.467,16.1-0.1c1.2,0.167,2.316,0.45,3.35,0.85c2.233,0.033,3.9-0.033,5-0.2c1.133-0.2,2.633-0.583,4.5-1.15
			c-3.5-5.4-7.317-10.7-11.45-15.9c-1.767-2.467-3.783-4.917-6.05-7.35c-1.167-1.1-2.217-2.283-3.15-3.55
			c-0.433-0.667-0.9-1.333-1.4-2l-0.25-1.1v-0.2l0.05-0.25L21.85-122.75z M165.85-51c0.1-0.267,0.2-0.633,0.3-1.1
			c0.633,0.533,1.4,0.8,2.3,0.8C167.617-51.233,166.75-51.133,165.85-51z M163.6-83.25c0-0.067,0-0.15,0-0.25
			c0.566-0.467,1.25-0.9,2.05-1.3l0.1-0.1l0.2-0.45l0.45-1.5l0.05-0.1c0.133-1,0.267-2.083,0.4-3.25l0.05-2.75l0.05-0.4l0.75-2.6
			l-0.65-7.7c1.067-6.767,1.5-14.267,1.3-22.5c-0.033-1.9-0.1-3.767-0.2-5.6c-0.333-6.133-0.917-11.883-1.75-17.25
			c-0.233,1.7-0.5,3.383-0.8,5.05c-0.033,0.1-0.067,0.184-0.1,0.25h-0.05l-0.3-0.3l-0.3-0.75l-0.4-2.05
			c-0.034-0.8-0.133-1.717-0.3-2.75c-0.733-2.534-1.217-4.35-1.45-5.45c-0.2-1.067,0.517-2.817,2.15-5.25
			c-6.8-6.867-13.8-13.067-21-18.6c-0.4,0.333-0.833,0.817-1.3,1.45c-0.733,6.467-2.083,12.9-4.05,19.3
			c-0.2-0.5-0.483-0.983-0.85-1.45c0,5.667,0.483,12.316,1.45,19.95c0.933,7.633,2.2,14.35,3.8,20.15
			c-0.667-0.033-1.217,0.233-1.65,0.8l-6.6-4.2c-7.467-4.4-14.733-9.183-21.8-14.35l-8.6-6.05l-0.8-0.7l-0.05-0.1
			c-0.3-3.8-0.267-10.133,0.1-19l0.5-8l0.9-5.85l0.5-1.9l0.6-1.5c0.6-0.367,1.15-0.717,1.65-1.05c-0.1-0.3-0.1-0.633,0-1h-0.05
			l-0.05-0.05l-0.2-0.4l-0.15-1.9c0.633-1.933,1.333-3.75,2.1-5.45c1.2-4.633,3.117-8.9,5.75-12.8c1.333-2,2.784-3.917,4.35-5.75
			c0.067-0.667-0.05-1.433-0.35-2.3l0.05-0.15l1.55-2.45l3.25-4.1l1.2-1.15l0.5-0.3c2.7-0.533,5.733-0.467,9.1,0.2
			c3.333,0.633,6.35,0.767,9.05,0.4c7.3-1.934,14.533-2.45,21.7-1.55h0.05l0.35,0.35l0.5,0.85l0.45,1.05
			c0.467,1.3,0.817,2.217,1.05,2.75c1.967,3.8,4.1,7.533,6.4,11.2c3.767,6.167,7.833,11.933,12.2,17.3
			c0.466,0.467,1.367,1.15,2.7,2.05c1.267,0.867,1.917,1.633,1.95,2.3c-2.267,8.1-4,16.35-5.2,24.75
			c-0.6,1.333-1.083,2.65-1.45,3.95c0.466,0.433,0.95,1.05,1.45,1.85c-0.7,0-1.217,0.067-1.55,0.2
			c-0.267,5.333-0.867,10.417-1.8,15.25c0.2,0.767,0.4,1.4,0.6,1.9c-0.767,0.333-1.267,0.967-1.5,1.9c1.2,3.733,1.6,7.45,1.2,11.15
			c0.233-0.2,0.633-0.067,1.2,0.4l0.9,8.85c-0.133,5.133-0.3,10.183-0.5,15.15c0.433,0.933,0.883,1.883,1.35,2.85
			c-0.333,1.333-0.5,2.617-0.5,3.85c0.567,0.3,1.017,0.617,1.35,0.95c-0.367,1.967-0.55,3.85-0.55,5.65
			c0.3,1.067,0.733,2.633,1.3,4.7c-2.467-0.2-5.05-0.467-7.75-0.8c-5.933-0.767-11.117-1.95-15.55-3.55H163.6z M93.6-5.85
			c-6-3.1-11.85-7.017-17.55-11.75c-5.667-4.767-11.5-8.683-17.5-11.75c-0.133-0.467-0.2-1.033-0.2-1.7
			c-1.033,0.667-1.967,1.4-2.8,2.2c-0.867,0.767-1.65,1.583-2.35,2.45l-7.35-5.45l-1.45-1.5l-0.2-0.3v-0.05
			c0.3-2.9,0.6-5.783,0.9-8.65c0.3-2.9,0.617-5.783,0.95-8.65c1.2-0.267,2.8-0.567,4.8-0.9c2.467-0.434,4.25-0.65,5.35-0.65
			c3.9-0.167,7.783-0.217,11.65-0.15c0.533,2.2,1.066,4.367,1.6,6.5c0.633,0.9,1.283,1.4,1.95,1.5c-0.333-2.533-0.816-5.2-1.45-8
			c1.267,0.034,2.533,0.083,3.8,0.15c0.867,0.267,1.7,0.466,2.5,0.6c1.567,5.1,3.067,10.233,4.5,15.4
			c1.667,3.667,3.3,7.216,4.9,10.65C87.917-19.3,90.567-12.617,93.6-5.85z M63.45-99.4H63l-0.1,0.05c1,0.133,1.9,0.267,2.7,0.4
			L63.45-99.4z M69.8-119.1l0.15-1.55l-0.1,1.6H69.8V-119.1z M68.65-147.05l0.65-2.65l0.15,0.2L70-148l0.05,0.3v0.05
			C69.517-147.717,69.05-147.517,68.65-147.05z M69.2-142.15c-0.367-0.367-0.833-0.333-1.4,0.1l1.5-2.9L69.2-142.15z M101.45-215.75
			c0.133,0.667,0.3,1.733,0.5,3.2c0,0.933-0.567,1.816-1.7,2.65l-2.3,1.55c-2.3-1.533-3.983-4-5.05-7.4
			c0.533-0.867,1.233-1.4,2.1-1.6l3.4,1l-0.05,0.8l0.15,2.75c0.433-0.3,0.867-0.7,1.3-1.2
			C100.3-214.433,100.85-215.017,101.45-215.75z M103.2-210.75c0.333-0.833,0.6-1.817,0.8-2.95c0.867-4.533-2.433-6.4-9.9-5.6
			c-2.467,1.8-3.9,3.583-4.3,5.35c-0.233,1.1-0.1,2.184,0.4,3.25c1.367,2.833,4.1,4.417,8.2,4.75
			C100.567-206.483,102.167-208.083,103.2-210.75z M186.45-208.95l-0.75-2.45l-0.15-1.25l0.15-0.45l0.1-0.1l0.1-0.05h0.05v-0.05h0.3
			l0.1-0.05v-0.05h-0.05l-0.15-0.05l-2.65-0.65c0.833-0.667,1.517-1.433,2.05-2.3l2.25,1.05l0.4,0.05h0.35l0.15,0.05l0.25,0.2
			l0.45,0.45l1.6,2.55c0.1,0.667-0.567,1.35-2,2.05l-2.45,1.05H186.45z M183.3-207.85c1.6,2.033,3.467,2.35,5.6,0.95
			c4.267-3.767,5.483-6.65,3.65-8.65c-1.833-1.967-5.033-2.567-9.6-1.8c-1.467,0.633-2.417,1.75-2.85,3.35
			c0.267,1,0.667,2.017,1.2,3.05C181.833-209.917,182.5-208.883,183.3-207.85z"/>
		<path fill-rule="evenodd" clip-rule="evenodd" fill="#CCCCCC" d="M68.4-164.5l-2-0.6c-0.033,0.1-0.066,0.2-0.1,0.3
			c-0.1-12.867,2.567-25.117,8-36.75c-0.2-0.434-0.367-1.017-0.5-1.75c0.667-1.9,1.25-3.817,1.75-5.75c0.633-1.6,1.383-2.934,2.25-4
			l0.55-2.6c0.066-0.3,0.133-0.567,0.2-0.8c0.2-1.033,0.35-1.767,0.45-2.2c0.233-0.567,0.467-1.117,0.7-1.65l-1-0.45
			c-1.5,1.067-3.067,2.167-4.7,3.3l-5.6-0.3c-3.1-0.267-5.267-0.467-6.5-0.6c-11.066-0.9-21.95-1.05-32.65-0.45
			c-0.233,2.167-0.3,3.733-0.2,4.7c0.1,0.934,0.867,2.367,2.3,4.3c-0.167-0.333-0.233-0.817-0.2-1.45c0.434-0.1,0.783-0.5,1.05-1.2
			c-0.167,1.733-0.184,3.467-0.05,5.2c0.367,0.333,0.817,0.683,1.35,1.05c0.167,0.7-0.15,1.017-0.95,0.95
			c-0.767-0.033-0.966,0.217-0.6,0.75c1.033,0.3,1.85,0.7,2.45,1.2c-0.2,1.066-0.383,1.983-0.55,2.75c0.6,1.033,1.35,2.35,2.25,3.95
			c2.667,7.8,5.55,15.767,8.65,23.9c-0.7,0.333-1.433,0.65-2.2,0.95v0.15l2.2,6.55l0.15,1.2l0.25,9.35
			c1.733,2.4,2.817,5.283,3.25,8.65c0.4,8.934,1.283,18.217,2.65,27.85c0.067,1.167,0.133,2.3,0.2,3.4c0,0.033,0.017,0.05,0.05,0.05
			c4.333,1.033,8.45,2.216,12.35,3.55c1.5,0.567,2.983,1.167,4.45,1.8c0.033-0.733,0.083-1.433,0.15-2.1l0.2-17.25
			c-1.1-3.034-1.65-6.2-1.65-9.5c0.567-0.067,1.117-0.117,1.65-0.15c0.133-0.433,0.417-0.75,0.85-0.95
			c-0.433-0.167-0.716-0.483-0.85-0.95c-0.534-0.066-1.083-0.1-1.65-0.1c-0.267-7.367,0.133-14.483,1.2-21.35
			C68.167-162.517,68.3-163.5,68.4-164.5z M195-8.25c0.533-1.233,1.45-3.467,2.75-6.7l1.7-4.75l0.35-1.5
			c-1.066-7.1-3.017-13.816-5.85-20.15l-0.25-0.8l-0.85-3.95c-1.533-0.3-2.8-0.467-3.8-0.5c-3.333,0.1-7.583-0.233-12.75-1
			c-5.2-0.8-9.566-1.617-13.1-2.45c-2-0.467-4.05-0.867-6.15-1.2c-0.466,2.267-0.867,4.483-1.2,6.65
			c-1.233,8.033-0.567,16.633,2,25.8c3.167-0.7,6.383-1.15,9.65-1.35c-1.4-3.6-3.333-6.434-5.8-8.5c1.1-1.1,2.35-1.583,3.75-1.45
			C175.45-22.433,185.3-15.15,195-8.25z M21.9-122.8l-0.05,0.05l-0.15,0.05l-0.05,0.25v0.2l0.25,1.1c0.5,0.667,0.967,1.333,1.4,2
			c0.934,1.267,1.983,2.45,3.15,3.55c2.267,2.434,4.283,4.883,6.05,7.35c4.133,5.2,7.95,10.5,11.45,15.9
			c-1.867,0.567-3.367,0.95-4.5,1.15c-1.1,0.167-2.767,0.233-5,0.2c-1.034-0.4-2.15-0.683-3.35-0.85c-4.6,0.567-9.967,0.6-16.1,0.1
			c5.467,7.633,10.383,14.667,14.75,21.1c-1.2-0.2-2.683-0.783-4.45-1.75c-2,6.267-4.45,12.917-7.35,19.95
			c9.6-1.1,18.683-2,27.25-2.7c0.433-0.033,0.883-0.067,1.35-0.1c3.333-0.267,6.6-0.5,9.8-0.7c0.2,0,0.4-0.017,0.6-0.05
			c-0.067-0.067-0.133-0.133-0.2-0.2c-0.1-0.167-0.233-0.383-0.4-0.65c0.267-0.2,0.5-0.433,0.7-0.7c3,0.466,6.284,0.966,9.85,1.5
			c-0.167,0.267-0.383,0.533-0.65,0.8c0.267-0.033,0.517-0.067,0.75-0.1c0.067,0,0.15-0.017,0.25-0.05
			c0.633-0.067,1.283-0.15,1.95-0.25c0.767,0.133,1.566,0.25,2.4,0.35c1.267,0.2,2.5,0.3,3.7,0.3c1,0.033,2,0,3-0.1
			c2.833-0.3,5.5-1.117,8-2.45c6.733,0.7,14.05,1.05,21.95,1.05c7.967,0,15.15-0.35,21.55-1.05c1.1,0.133,2.2,0.4,3.3,0.8
			c4.433,0.367,8.917,0.367,13.45,0c3.267,0.433,6.633,0.817,10.1,1.15c0.467,0.067,0.934,0.117,1.4,0.15c1.1,0.1,2.233,0.2,3.4,0.3
			c0.367-0.4,0.716-0.9,1.05-1.5c2.667,1.833,6.333,3.217,11,4.15c4.6,0.967,8.95,1.55,13.05,1.75c1.633,0.1,3.45,0.3,5.45,0.6
			c0.867,0.133,1.783,0.283,2.75,0.45c2.267,0.434,4.717,0.967,7.35,1.6c6.233,1.467,11.233,2.867,15,4.2
			c1.767-3.733,3-7.417,3.7-11.05c-2.633-0.233-5.167-0.7-7.6-1.4c0.733-0.2,1.367-0.6,1.9-1.2l0.05-0.05h0.4l5.4,0.85
			c6.566,0.733,13.083,0.833,19.55,0.3c-0.5-5.267-1.717-9.816-3.65-13.65c-5.667-1.033-11.667-1.55-18-1.55
			c-6.367,0-12.467-0.217-18.3-0.65c-0.133-0.267,0.117-0.517,0.75-0.75c0.6,0.2,1.3,0.333,2.1,0.4c1.567-0.1,3.017-0.233,4.35-0.4
			c-2.1-0.333-4.183-0.667-6.25-1c-3.7-0.6-7.383-1.217-11.05-1.85c-0.367-0.067-0.717-0.133-1.05-0.2
			c-0.467-0.066-0.917-0.133-1.35-0.2c-8.3-1.4-16.533-2.833-24.7-4.3c-0.434-0.066-0.867-0.15-1.3-0.25
			c-5.1-0.9-10.183-1.816-15.25-2.75c-20.033-3.767-39.95-9.267-59.75-16.5c-4.233-1.467-8.617-2.383-13.15-2.75
			c-0.733-0.066-1.5-0.183-2.3-0.35c-0.4-0.066-0.8-0.15-1.2-0.25c-0.267-0.033-0.517-0.083-0.75-0.15
			c-0.533-0.133-1.066-0.283-1.6-0.45c-0.233-0.067-0.466-0.133-0.7-0.2c-1.434-0.467-2.95-1.017-4.55-1.65
			c-4.333-1.733-7.75-3.283-10.25-4.65c1.8,0.333,3.833,0.683,6.1,1.05l-2.8-1.7c-1.467-0.867-2.7-1.066-3.7-0.6
			c-0.133,0.3-0.25,0.6-0.35,0.9c-0.133-0.033-0.25-0.083-0.35-0.15c-0.667-0.233-1.333-0.467-2-0.7
			C40.383-115.017,31.2-118.7,21.9-122.8z M93.6-5.85c-3.033-6.767-5.684-13.45-7.95-20.05c-1.6-3.434-3.233-6.983-4.9-10.65
			c-1.433-5.167-2.933-10.3-4.5-15.4c-0.8-0.133-1.633-0.333-2.5-0.6c-1.267-0.067-2.533-0.117-3.8-0.15
			c0.633,2.8,1.117,5.467,1.45,8c-0.667-0.1-1.316-0.6-1.95-1.5c-0.534-2.133-1.067-4.3-1.6-6.5c-3.867-0.066-7.75-0.017-11.65,0.15
			c-1.1,0-2.883,0.216-5.35,0.65c-2,0.333-3.6,0.633-4.8,0.9c-0.333,2.867-0.65,5.75-0.95,8.65c-0.3,2.867-0.6,5.75-0.9,8.65v0.05
			l0.2,0.3l1.45,1.5l7.35,5.45c0.7-0.867,1.483-1.684,2.35-2.45c0.833-0.8,1.767-1.533,2.8-2.2c0,0.667,0.066,1.233,0.2,1.7
			c6,3.067,11.833,6.983,17.5,11.75C81.75-12.867,87.6-8.95,93.6-5.85z M163.6-83.25h0.5c4.433,1.6,9.617,2.783,15.55,3.55
			c2.7,0.333,5.283,0.6,7.75,0.8c-0.566-2.067-1-3.633-1.3-4.7c0-1.8,0.183-3.683,0.55-5.65c-0.333-0.333-0.783-0.65-1.35-0.95
			c0-1.233,0.167-2.517,0.5-3.85c-0.466-0.967-0.917-1.917-1.35-2.85c0.2-4.967,0.367-10.017,0.5-15.15l-0.9-8.85
			c-0.566-0.467-0.966-0.6-1.2-0.4c0.4-3.7,0-7.417-1.2-11.15c0.233-0.933,0.733-1.566,1.5-1.9c-0.2-0.5-0.4-1.133-0.6-1.9
			c0.934-4.833,1.534-9.917,1.8-15.25c0.333-0.133,0.85-0.2,1.55-0.2c-0.5-0.8-0.983-1.417-1.45-1.85
			c0.367-1.3,0.85-2.617,1.45-3.95c1.2-8.4,2.934-16.65,5.2-24.75c-0.033-0.667-0.684-1.433-1.95-2.3
			c-1.333-0.9-2.233-1.583-2.7-2.05c-4.367-5.367-8.434-11.133-12.2-17.3c-2.3-3.667-4.433-7.4-6.4-11.2
			c-0.233-0.533-0.583-1.45-1.05-2.75l-0.45-1.05l-0.5-0.85l-0.35-0.35h-0.05c-7.167-0.9-14.4-0.383-21.7,1.55
			c-2.7,0.367-5.717,0.233-9.05-0.4c-3.367-0.667-6.4-0.733-9.1-0.2l-0.5,0.3l-1.2,1.15l-3.25,4.1l-1.55,2.45l-0.05,0.15
			c0.3,0.867,0.417,1.633,0.35,2.3c-1.566,1.833-3.017,3.75-4.35,5.75c-2.633,3.9-4.55,8.167-5.75,12.8
			c-0.767,1.7-1.466,3.517-2.1,5.45l0.15,1.9l0.2,0.4l0.05,0.05h0.05c-0.1,0.367-0.1,0.7,0,1c-0.5,0.333-1.05,0.684-1.65,1.05
			l-0.6,1.5l-0.5,1.9l-0.9,5.85l-0.5,8c-0.367,8.867-0.4,15.2-0.1,19l0.05,0.1l0.8,0.7l8.6,6.05c7.066,5.167,14.333,9.95,21.8,14.35
			l6.6,4.2c0.433-0.567,0.983-0.833,1.65-0.8c-1.6-5.8-2.867-12.517-3.8-20.15c-0.967-7.633-1.45-14.283-1.45-19.95
			c0.367,0.466,0.65,0.95,0.85,1.45c1.967-6.4,3.317-12.833,4.05-19.3c0.467-0.633,0.9-1.117,1.3-1.45
			c7.2,5.533,14.2,11.733,21,18.6c-1.633,2.433-2.35,4.183-2.15,5.25c0.233,1.1,0.716,2.917,1.45,5.45
			c0.167,1.033,0.267,1.95,0.3,2.75l0.4,2.05l0.3,0.75l0.3,0.3h0.05c0.033-0.066,0.067-0.15,0.1-0.25c0.3-1.667,0.566-3.35,0.8-5.05
			c0.833,5.367,1.417,11.117,1.75,17.25c0.1,1.833,0.167,3.7,0.2,5.6c0.2,8.233-0.233,15.733-1.3,22.5l0.65,7.7l-0.75,2.6l-0.05,0.4
			l-0.05,2.75c-0.133,1.167-0.267,2.25-0.4,3.25l-0.05,0.1l-0.45,1.5l-0.2,0.45l-0.1,0.1c-0.8,0.4-1.483,0.833-2.05,1.3
			C163.6-83.4,163.6-83.317,163.6-83.25z M63.45-99.4l2.15,0.45c-0.8-0.133-1.7-0.267-2.7-0.4L63-99.4H63.45z M101.45-215.75
			c-0.6,0.733-1.15,1.317-1.65,1.75c-0.433,0.5-0.867,0.9-1.3,1.2l-0.15-2.75l0.05-0.8l-3.4-1c-0.867,0.2-1.567,0.733-2.1,1.6
			c1.067,3.4,2.75,5.867,5.05,7.4l2.3-1.55c1.133-0.833,1.7-1.717,1.7-2.65C101.75-214.017,101.583-215.083,101.45-215.75z
			 M186.45-208.95h0.1L189-210c1.433-0.7,2.1-1.383,2-2.05l-1.6-2.55l-0.45-0.45l-0.25-0.2l-0.15-0.05h-0.35l-0.4-0.05l-2.25-1.05
			c-0.533,0.867-1.216,1.633-2.05,2.3l2.65,0.65l0.15,0.05h0.05v0.05l-0.1,0.05h-0.3v0.05h-0.05l-0.1,0.05l-0.1,0.1l-0.15,0.45
			l0.15,1.25L186.45-208.95z"/>
		<path fill-rule="evenodd" clip-rule="evenodd" fill="#FFFFFF" d="M165.85-51c0.9-0.133,1.767-0.233,2.6-0.3
			c-0.9,0-1.667-0.267-2.3-0.8C166.05-51.633,165.95-51.267,165.85-51z"/>
	</g>
</symbol>
<g id="Audio_Wave">
</g>
<g id="Wave">
	<g>
		
			<use xlink:href="#TJ_Logo_Plain"  width="244.996" height="231.25" y="-231.25" transform="matrix(1.4412 0 0 -1.4412 89.7002 33.3999)" overflow="visible"/>
		
			<use xlink:href="#Audibooks_text"  width="388.9" height="57.65" x="0.024" y="-57.65" transform="matrix(1.175 0 0 -1.175 24.5498 385.9502)" overflow="visible"/>
	</g>
</g>
</svg>
